<svg xmlns="http://www.w3.org/2000/svg" xmlns:xlink="http://www.w3.org/1999/xlink" viewBox="2547 316 1039 674">
  <defs>
    <style>
      .cls-1 {
        clip-path: url(#clip-Web_1920_1);
      }

      .cls-2 {
        fill: #e71d36;
      }

      .cls-3 {
        fill: #2ec4b6;
      }

      .cls-4 {
        fill: #ff6868;
      }

      .cls-5 {
        fill: #f6fe1d;
      }

      .cls-6 {
        fill: #1defff;
      }

      .cls-7 {
        fill: #ffb5b5;
      }

      .cls-8 {
        fill: #041cf2;
      }

      .cls-9 {
        fill: #fe2323;
      }

      .cls-10 {
        fill: #6aafe6;
      }

      .cls-11 {
        fill: #791e94;
      }

      .cls-12 {
        fill: #f8ff3a;
      }

      .cls-13 {
        fill: #ffbfbf;
      }

      .cls-14 {
        fill: #fff700;
      }

      .cls-15 {
        fill: #fe1313;
      }

      .cls-16 {
        fill: #fff;
      }
    </style>
    <clipPath id="clip-Web_1920_1">
      <rect x="2547" y="316" width="1039" height="674"/>
    </clipPath>
  </defs>
  <g id="Web_1920_1" data-name="Web 1920 – 1" class="cls-1">
    <rect class="cls-16" x="2547" y="316" width="1039" height="674"/>
    <ellipse id="Ellipse_1" data-name="Ellipse 1" class="cls-2" cx="146" cy="146.5" rx="146" ry="146.5" transform="matrix(0.616, -0.788, 0.788, 0.616, 3398.549, 472.276)"/>
    <ellipse id="Ellipse_2" data-name="Ellipse 2" class="cls-3" cx="129" cy="123.5" rx="129" ry="123.5" transform="translate(3354 242)"/>
    <ellipse id="Ellipse_3" data-name="Ellipse 3" cx="132.5" cy="118" rx="132.5" ry="118" transform="translate(3231 211)"/>
    <path id="Union_1" data-name="Union 1" class="cls-4" d="M-2408.229-226.947c-10.611,0-67.444,22.357-84.568,19.556-29.822-.943-53.7-24.776-53.7-54.04,0-29.861,24.863-54.069,55.535-54.069a56.285,56.285,0,0,1,32.9,10.508,13.634,13.634,0,0,1,3.3,2.558,54.745,54.745,0,0,1,11.384,13.112c9.661,11.376,22.174,24.648,35.15,24.648,26.6,0,86.363-44.778,86.363-17.9,0,5.366-20.468,28.833-20.968,43.5-.745,21.855,17.638,36.584,11.334,40.371a5.771,5.771,0,0,1-2.961.644C-2349.1-198.064-2396.152-226.947-2408.229-226.947Z" transform="translate(5559.884 31.775) rotate(-14)"/>
    <path id="Union_2" data-name="Union 2" class="cls-5" d="M-2424.5-241.8c-9.363,0-59.508,18.607-74.617,16.276-26.313-.784-47.383-20.62-47.383-44.976,0-24.853,21.938-45,49-45a51.719,51.719,0,0,1,29.032,8.745,11.982,11.982,0,0,1,2.91,2.129,46.456,46.456,0,0,1,10.044,10.912c8.524,9.468,19.564,20.513,31.014,20.513,23.472,0,76.2-37.267,76.2-14.9,0,4.466-18.06,24-18.5,36.2-.657,18.189,15.563,30.448,10,33.6a5.345,5.345,0,0,1-2.613.536C-2372.331-217.762-2413.844-241.8-2424.5-241.8Z" transform="translate(5750.144 20.097) rotate(-14)"/>
    <ellipse id="Ellipse_6" data-name="Ellipse 6" class="cls-6" cx="8" cy="6.5" rx="8" ry="6.5" transform="translate(3196 447)"/>
    <ellipse id="Ellipse_7" data-name="Ellipse 7" class="cls-6" cx="7" cy="6.5" rx="7" ry="6.5" transform="translate(3306 489)"/>
    <circle id="Ellipse_8" data-name="Ellipse 8" class="cls-7" cx="6.5" cy="6.5" r="6.5" transform="translate(3274 454)"/>
    <ellipse id="Ellipse_9" data-name="Ellipse 9" class="cls-7" cx="13" cy="11" rx="13" ry="11" transform="translate(3373 496)"/>
    <circle id="Ellipse_10" data-name="Ellipse 10" class="cls-8" cx="5" cy="5" r="5" transform="translate(3354 552)"/>
    <ellipse id="Ellipse_11" data-name="Ellipse 11" class="cls-9" cx="7.5" cy="6" rx="7.5" ry="6" transform="translate(3437 557)"/>
    <ellipse id="Ellipse_12" data-name="Ellipse 12" class="cls-7" cx="8.5" cy="11" rx="8.5" ry="11" transform="translate(3483 580)"/>
    <ellipse id="Ellipse_14" data-name="Ellipse 14" class="cls-8" cx="4" cy="3.5" rx="4" ry="3.5" transform="translate(3212 410)"/>
    <circle id="Ellipse_15" data-name="Ellipse 15" class="cls-7" cx="4" cy="4" r="4" transform="translate(3136 417)"/>
    <ellipse id="Ellipse_16" data-name="Ellipse 16" class="cls-9" cx="5.5" cy="3.5" rx="5.5" ry="3.5" transform="translate(3348 470)"/>
    <ellipse id="Ellipse_17" data-name="Ellipse 17" class="cls-6" cx="7" cy="5.5" rx="7" ry="5.5" transform="translate(3430 602)"/>
    <circle id="Ellipse_19" data-name="Ellipse 19" class="cls-8" cx="4" cy="4" r="4" transform="translate(3533 625)"/>
    <path id="Path_3" data-name="Path 3" class="cls-10" d="M183.054-45.266c34.352,0,51.36,150.6,81.045,165.269,48.335,23.885,115.633,49.271,115.633,94.463,0,72.774-142.81,119.94-233.45,119.94S.5,226.433.5,146.048c0-56.59,30.735-147.3,89.529-184.937C114.464-54.53,156.224-45.266,183.054-45.266Z" transform="matrix(1, -0.017, 0.017, 1, 2460.464, 712.154)"/>
    <path id="Path_4" data-name="Path 4" class="cls-11" d="M130.847-24.705c19.184,0,84.514,30.344,114.972,59.916,19.875,19.3,55.208,91.6,66.214,97.17,13.743,6.955,106.137,5.266,118.58,25.073,16.987,27.039,42.636,81.491,31.234,101.461-7.047,12.342-51.062-8.53-51.062,3.109,0,69.25-190.6,56.212-274.823,56.212S.5,215.491.5,139,46.623-24.705,130.847-24.705Z" transform="matrix(1, -0.017, 0.017, 1, 2546.304, 749.685)"/>
    <path id="Path_5" data-name="Path 5" class="cls-12" d="M114.7,69.5c87.537,0,257.9-66.885,257.9-10s-126.063,147-213.6,147S-10.3,70.485-10.3,13.6,27.163,69.5,114.7,69.5Z" transform="translate(2698 852)"/>
    <ellipse id="Ellipse_20" data-name="Ellipse 20" class="cls-13" cx="6" cy="4" rx="6" ry="4" transform="translate(2599 634)"/>
    <ellipse id="Ellipse_21" data-name="Ellipse 21" class="cls-14" cx="3" cy="5" rx="3" ry="5" transform="translate(2688 697)"/>
    <circle id="Ellipse_22" data-name="Ellipse 22" class="cls-13" cx="6.5" cy="6.5" r="6.5" transform="translate(2802 741)"/>
    <ellipse id="Ellipse_23" data-name="Ellipse 23" class="cls-14" cx="4" cy="5" rx="4" ry="5" transform="translate(2846 653)"/>
    <ellipse id="Ellipse_24" data-name="Ellipse 24" class="cls-13" cx="3.5" cy="4.5" rx="3.5" ry="4.5" transform="translate(2879 825)"/>
    <ellipse id="Ellipse_25" data-name="Ellipse 25" class="cls-15" cx="4.5" cy="5.5" rx="4.5" ry="5.5" transform="translate(2886 852)"/>
    <ellipse id="Ellipse_26" data-name="Ellipse 26" class="cls-13" cx="4" cy="5" rx="4" ry="5" transform="translate(3008 873)"/>
    <ellipse id="Ellipse_27" data-name="Ellipse 27" class="cls-14" cx="7" cy="5" rx="7" ry="5" transform="translate(3084 858)"/>
    <circle id="Ellipse_28" data-name="Ellipse 28" class="cls-14" cx="4" cy="4" r="4" transform="translate(2883 761)"/>
    <ellipse id="Ellipse_29" data-name="Ellipse 29" class="cls-15" cx="5.5" cy="4" rx="5.5" ry="4" transform="translate(2707 619)"/>
    <ellipse id="Ellipse_30" data-name="Ellipse 30" class="cls-13" cx="5.5" cy="4.5" rx="5.5" ry="4.5" transform="translate(3098 933)"/>
  </g>
</svg>
